# xmcd
#
# Track frame offsets:
#	150
#	18182
#	31265
#	59887
#	69997
#	91205
#	108470
#	119140
#	130752
#	153440
#
# Disc length: 2342 seconds
#
# Revision: 1
# Processed by: cddbd v1.4PL0 Copyright (c) Steve Scherf et al.
# Submitted via: mwyoung-manual 1.0
#
DISCID=8509240a
DTITLE=King Ivory - The Bitch Done Quit Me
DYEAR=1995
DGENRE=Blues
TTITLE0=The Bitch Done Quit Me
TTITLE1=Look Good Woman
TTITLE2=Can't Help But To Love You
TTITLE3=Find Yourself a Job
TTITLE4=Sweet Black Woman
TTITLE5=Red Rooster
TTITLE6=Alley Oop
TTITLE7=C'Mon, Don't You Wanna Go
TTITLE8=Let's Have a Good Time
TTITLE9=Shake Rattle and Roll
EXTD=LABEL=Collectables\nID=COL-5562\nUPC=090431556221
EXTT0=
EXTT1=
EXTT2=
EXTT3=
EXTT4=
EXTT5=
EXTT6=
EXTT7=
EXTT8=
EXTT9=
PLAYORDER=
